PathFileType	4	(X/Y/Z)	C:\Users\Basilio\Documents\Thesis Gigler\squatting_fais\c3dfiles\040\SLS_pre_front2\markers_experimental.trc
DataRate	CameraRate	NumFrames	NumMarkers	Units	OrigDataRate	OrigDataStartFrame	OrigNumFrames
200.000000	200.000000	4	62	mm	200.000000	735	1471
Frame#	Time	FHD			LBHD			RBHD			C7			T10			CLAV			LSHO			LUUPA			LMUPA			LDUPA			LLEP			LMEP			LRAD			LUL			LRFIN			RSHO			RUPA1			RMUPA			RDUPA			RLEP			RMEP			RRAD			RUL			RUFIN			LASI			RASI			USACR			LSACR			RSACR			LTHI1			LTHI2			LTHI3			LTHI4			LLFC			LMFC			LTIB1			LTIB2			LTIB3			LTIB4			LLMAL			LMMAL			LHEE			LMT1			LMT2			LMT5			RTHI			RTHI2			RTHI3			RTHI4			RLFC			RMFC			RTIB1			RTIB2			RTIB3			RTIB4			RLMAL			RMMAL			RHEE			RMT1			RMT2			RMT5			*61			
		X1	Y1	Z1	X2	Y2	Z2	X3	Y3	Z3	X4	Y4	Z4	X5	Y5	Z5	X6	Y6	Z6	X7	Y7	Z7	X8	Y8	Z8	X9	Y9	Z9	X10	Y10	Z10	X11	Y11	Z11	X12	Y12	Z12	X13	Y13	Z13	X14	Y14	Z14	X15	Y15	Z15	X16	Y16	Z16	X17	Y17	Z17	X18	Y18	Z18	X19	Y19	Z19	X20	Y20	Z20	X21	Y21	Z21	X22	Y22	Z22	X23	Y23	Z23	X24	Y24	Z24	X25	Y25	Z25	X26	Y26	Z26	X27	Y27	Z27	X28	Y28	Z28	X29	Y29	Z29	X30	Y30	Z30	X31	Y31	Z31	X32	Y32	Z32	X33	Y33	Z33	X34	Y34	Z34	X35	Y35	Z35	X36	Y36	Z36	X37	Y37	Z37	X38	Y38	Z38	X39	Y39	Z39	X40	Y40	Z40	X41	Y41	Z41	X42	Y42	Z42	X43	Y43	Z43	X44	Y44	Z44	X45	Y45	Z45	X46	Y46	Z46	X47	Y47	Z47	X48	Y48	Z48	X49	Y49	Z49	X50	Y50	Z50	X51	Y51	Z51	X52	Y52	Z52	X53	Y53	Z53	X54	Y54	Z54	X55	Y55	Z55	X56	Y56	Z56	X57	Y57	Z57	X58	Y58	Z58	X59	Y59	Z59	X60	Y60	Z60	X61	Y61	Z61	X62	Y62	Z62	

736	3.675	-242.4400177001954	1756.289184570313	-1138.721801757813	-363.5028686523438	1700.45361328125	-1183.098876953125	-417.8399047851564	1659.29541015625	-1053.046508789063	-409.7806396484376	1538.15966796875	-1104.175170898438	-457.162322998047	1227.243530273438	-1096.319946289063	-280.4565734863282	1474.673461914063	-1108.592407226563	-331.2133789062501	1536.73046875	-1248.682250976563	-163.5975189208985	1487.50390625	-1311.8291015625	-138.038818359375	1499.1748046875	-1270.843994140625	-96.35169982910159	1474.105102539063	-1306.102783203125	-40.25836181640626	1446.420776367188	-1302.501953125	-55.26858520507814	1391.053466796875	-1270.935424804688	206.6158447265626	1446.939453125	-1154.9189453125	229.4116210937501	1462.898681640625	-1228.289672851563	295.6188049316407	1460.4228515625	-1131.442993164063	-307.0027770996094	1514.61328125	-964.8974609375002	-146.6237335205078	1442.091552734375	-900.7644042968752	-119.6661376953125	1464.850463867188	-934.5030517578127	-78.58541107177736	1427.0849609375	-909.7454833984377	-18.17733955383301	1416.1435546875	-924.1375732421877	-33.49210739135743	1360.813720703125	-973.9807128906252	227.1899871826172	1464.301513671875	-1086.41796875	243.2439270019532	1449.682983398438	-1013.047973632813	324.6316528320313	1471.943237304688	-1090.201416015625	-296.4565734863282	1036.582153320313	-1195.406982421875	-294.7347412109376	1055.414794921875	-970.1534423828127	-479.8406066894532	1085.955810546875	-1079.662963867188	-488.149383544922	1053.85791015625	-1105.019409179688	-488.2204895019532	1057.516723632813	-1048.44091796875	-357.6625976562501	766.3041381835939	-1237.528564453125	-298.3798828125001	705.6173706054689	-1249.175048828125	-257.2665710449219	723.1051025390626	-1261.626708984375	-298.8328247070313	649.5882568359376	-1230.088623046875	-242.8711547851563	531.8275756835939	-1220.145263671875	-224.4857788085938	526.1663208007814	-1092.726684570313	-231.9221343994141	310.9253234863282	-1153.636962890625	-314.0661010742188	286.0435791015626	-1178.699829101563	-273.4188537597657	270.3919372558594	-1169.468994140625	-276.0863952636719	199.0150146484376	-1124.234619140625	-356.8646240234376	122.4452819824219	-1114.432495117188	-312.8807678222657	144.866928100586	-1040.07666015625	-413.2684936523439	97.56815338134768	-1050.916015625	-200.4470367431641	60.77058792114259	-1054.092041015625	-206.7766113281251	49.81789398193361	-1099.469482421875	-262.2487487792969	33.12224578857423	-1139.91064453125	-258.3609924316407	813.8997802734377	-880.0089111328127	-202.2523651123047	779.2112426757815	-885.358825683594	-175.170639038086	794.0364990234377	-895.593933105469	-193.5257720947266	697.0562744140626	-894.232849121094	-121.9328689575196	582.4412231445314	-902.5714111328127	-111.063232421875	577.0952758789064	-1037.327758789063	19.00709342956543	451.9292602539064	-921.622741699219	-1.235316872596741	347.7607116699219	-898.098083496094	39.2025260925293	368.5043029785157	-905.529968261719	80.40869140625001	339.3507690429688	-937.0887451171877	99.03970336914065	213.3652038574219	-915.747253417969	108.6835861206055	237.3547821044922	-1001.670104980469	71.58792877197267	141.6575469970703	-971.1460571289065	265.2625427246094	253.6966857910157	-979.4462890625002	258.8696899414063	253.8861999511719	-939.964782714844	237.8999786376954	208.8228607177735	-889.704772949219	nan	nan	nan	
737	3.68	-243.0589447021485	1758.746826171875	-1138.492919921875	-364.5556030273438	1703.320190429688	-1183.050415039063	-419.0268859863282	1662.194580078125	-1052.9775390625	-411.0972900390626	1540.839721679688	-1104.058837890625	-456.7031860351564	1229.31005859375	-1096.62744140625	-281.3236389160157	1477.5244140625	-1108.574096679688	-331.9699401855469	1539.322143554688	-1248.916259765625	-164.0622711181641	1489.4365234375	-1311.687622070313	-139.053466796875	1501.445556640625	-1271.01904296875	-96.75970458984378	1475.992797851563	-1306.057739257813	-40.77661895751954	1448.050170898438	-1302.385009765625	-55.94594573974611	1392.628295898438	-1270.283081054688	207.254623413086	1448.412963867188	-1154.45751953125	228.8868560791016	1464.144409179688	-1228.086059570313	294.8927917480469	1462.136352539063	-1131.160400390625	-308.0205688476563	1517.025146484375	-964.6564941406252	-148.0678100585938	1444.211791992188	-900.6423950195315	-120.3842315673828	1467.177368164063	-934.4196777343752	-79.80665588378908	1429.061401367188	-909.832946777344	-19.02296829223633	1418.121215820313	-923.9502563476565	-34.06901168823243	1362.936767578125	-973.8862915039065	226.3951721191407	1466.224975585938	-1085.939575195313	242.7086334228516	1451.187133789063	-1012.562927246094	324.1481628417969	1473.42041015625	-1089.683227539063	-295.1397399902344	1039.143798828125	-1195.615844726563	-293.1323242187501	1058.32666015625	-970.5357666015627	-478.4153747558595	1087.540405273438	-1079.929809570313	-486.619354248047	1055.791625976563	-1105.203247070313	-486.8466796875001	1059.558227539063	-1048.68359375	-358.0087585449219	768.570983886719	-1237.0244140625	-299.5624389648438	707.4754028320314	-1248.3017578125	-257.7667236328126	724.1031494140626	-1261.248413085938	-300.4950561523438	651.6430664062501	-1229.457641601563	-244.719223022461	533.0189208984376	-1219.301147460938	-226.5449981689454	527.1497192382814	-1092.002563476563	-233.3447418212891	312.0456848144532	-1153.567016601563	-315.2789001464844	286.6101379394532	-1178.289672851563	-274.2219543457032	271.6777343750001	-1168.905639648438	-276.7891845703126	199.2360992431641	-1124.10595703125	-357.0486450195313	122.6253280639649	-1114.533935546875	-312.9832153320313	144.8807678222657	-1040.072631835938	-413.4924926757814	97.87272644042972	-1050.90380859375	-200.3466339111329	60.74172592163087	-1054.023681640625	-206.8077087402344	49.82423400878908	-1099.470336914063	-262.6405334472657	33.38646697998048	-1139.974731445313	-258.3593444824219	815.6566162109377	-880.1103515625002	-202.3921356201172	780.4838867187502	-885.2812500000002	-174.1948547363282	796.4689941406252	-893.811462402344	-193.5252685546876	697.9604492187501	-894.5388183593752	-122.9510650634766	583.1723632812501	-902.498474121094	-111.5447082519532	577.8948974609376	-1037.2255859375	17.0225887298584	451.993133544922	-921.1329345703127	-3.845053672790528	348.1011962890626	-898.1707763671877	37.23509216308594	368.5272521972657	-905.5119628906252	77.96138763427736	339.2855834960938	-936.7874755859377	96.84709930419925	213.3682403564454	-915.387390136719	106.1768569946289	237.0195007324219	-1001.506652832031	68.88639068603517	141.0130767822266	-971.5714111328127	262.6292114257813	253.0830078125001	-978.6770629882815	256.3806457519532	252.9818267822266	-939.0051269531252	234.7937164306641	207.5471496582032	-889.1550903320315	nan	nan	nan	
738	3.685	-244.0223693847657	1761.481201171875	-1138.385375976563	-365.4521484375001	1706.1455078125	-1182.931640625	-419.9945373535157	1664.894653320313	-1052.877319335938	-412.2913208007814	1543.23681640625	-1104.01171875	-455.8340454101564	1231.637573242188	-1096.79345703125	-282.1119689941407	1480.325439453125	-1108.550415039063	-332.7153320312501	1541.977661132813	-1249.118286132813	-164.8078765869141	1491.404052734375	-1311.789916992188	-138.9810943603516	1503.396484375	-1271.01708984375	-97.57062530517581	1477.905883789063	-1305.984497070313	-41.47835922241212	1449.760498046875	-1302.18505859375	-57.00514602661134	1394.755004882813	-1269.911376953125	208.0445556640626	1449.479736328125	-1154.336669921875	228.2181091308594	1465.573120117188	-1227.908325195313	294.1043090820313	1463.779663085938	-1131.01904296875	-308.7661743164063	1519.517333984375	-964.4561767578127	-148.8913116455078	1446.8291015625	-900.2830810546877	-121.5112838745117	1469.078857421875	-933.9800415039065	-80.87880706787111	1431.145263671875	-909.682312011719	-20.48309707641602	1421.097412109375	-925.163513183594	-35.17606735229493	1365.238159179688	-973.6295166015627	225.7126922607422	1468.056762695313	-1085.72021484375	242.0980987548829	1453.014892578125	-1012.37109375	323.4573364257813	1475.14892578125	-1088.9619140625	-293.5358886718751	1041.975341796875	-1196.059326171875	-292.0962829589844	1061.16943359375	-970.4297485351565	-477.1238403320314	1089.529907226563	-1080.15185546875	-485.061737060547	1057.70458984375	-1105.353393554688	-485.2807922363282	1061.539428710938	-1048.795166015625	-358.1235961914063	770.5904541015627	-1236.491333007813	-300.1984252929688	709.0772705078126	-1247.65576171875	-258.4261474609376	725.2792968750001	-1260.558227539063	-301.6879577636719	653.1876220703126	-1228.736206054688	-247.3417663574219	534.4489135742189	-1218.771362304688	-228.1412963867188	527.7594604492189	-1091.074340820313	-234.6970672607422	313.4738159179688	-1153.765502929688	-316.5203247070313	287.2115783691407	-1177.87060546875	-275.0347900390626	272.3129577636719	-1168.7841796875	-276.9627990722657	199.5821685791016	-1123.958374023438	-357.2360839843751	122.7516174316407	-1114.528198242188	-313.1661071777344	144.9764556884766	-1040.138305664063	-413.5310058593751	98.0549240112305	-1050.96337890625	-200.5197906494141	60.76645660400392	-1053.950439453125	-206.7638397216797	49.86891174316408	-1099.4736328125	-262.1882629394532	33.13013076782227	-1139.9384765625	-258.0133056640626	817.382995605469	-879.9632568359377	-202.2116241455079	781.877868652344	-885.1806640625002	-174.0549774169922	797.4272460937502	-893.7200317382815	-194.6533966064454	699.4558715820314	-894.376892089844	-124.4636917114258	583.9036865234376	-902.3306274414065	-112.6890335083008	578.5979003906251	-1037.069213867188	15.49136257171631	451.9749755859376	-920.9185180664065	-6.09248733520508	348.1936645507813	-898.0366210937502	34.75390625000001	368.2956848144532	-905.0900878906252	76.22440338134767	339.3103942871094	-936.6461181640627	93.6979217529297	212.8661041259766	-915.6246337890627	103.9797058105469	237.0952148437501	-1001.339294433594	65.86384582519533	141.1774444580078	-972.1052856445315	260.3992614746094	252.0462188720704	-977.8670043945315	253.8868560791016	251.998031616211	-938.1980590820315	232.0529327392579	206.5388183593751	-888.521911621094	nan	nan	nan	
739	3.69	-244.8202819824219	1763.562377929688	-1138.092651367188	-366.1847839355469	1708.8681640625	-1182.825073242188	-420.9750061035157	1667.551391601563	-1052.803466796875	-413.3734436035157	1545.614379882813	-1104.227172851563	-455.7620849609376	1233.304443359375	-1097.24072265625	-282.9745178222657	1483.232421875	-1108.428344726563	-333.5792236328126	1544.568603515625	-1249.269287109375	-165.3333435058594	1493.382080078125	-1311.609008789063	-139.769760131836	1505.705200195313	-1271.241455078125	-98.00300598144534	1479.6982421875	-1305.848876953125	-42.13558959960938	1451.26806640625	-1301.914306640625	-57.82799530029298	1396.447021484375	-1269.555786132813	206.1836242675782	1451.325927734375	-1154.192993164063	227.4999084472657	1466.746459960938	-1227.831176757813	293.2078552246094	1465.398559570313	-1130.726928710938	-309.9540100097657	1521.766235351563	-964.181335449219	-149.5529937744141	1448.79150390625	-900.3748168945315	-122.3867721557617	1471.103271484375	-933.7362060546877	-81.67504882812501	1432.896118164063	-909.5068359375002	-21.21015548706055	1423.014282226563	-925.319030761719	-36.5975570678711	1366.891235351563	-973.8066406250002	224.6557769775391	1469.956298828125	-1085.25048828125	241.0267944335938	1454.647094726563	-1011.6611328125	322.6414489746094	1476.850463867188	-1088.687866210938	-291.9935302734376	1044.387084960938	-1196.166259765625	-290.1684570312501	1063.752807617188	-970.7984008789065	-475.7456970214845	1091.89794921875	-1080.322143554688	-483.459686279297	1059.631225585938	-1105.492309570313	-483.543426513672	1063.578369140625	-1048.881103515625	-358.5020446777344	772.9353637695315	-1235.84716796875	-301.0886230468751	710.7528076171876	-1246.90283203125	-259.4176940917969	726.7059326171876	-1259.997680664063	-303.0658569335938	654.8062744140626	-1227.8701171875	-249.8604736328126	535.7148437500001	-1217.845947265625	-230.3677062988282	529.2819213867189	-1090.16357421875	-236.0221557617188	313.5111083984376	-1153.11962890625	-317.6127624511719	287.7565307617188	-1177.5537109375	-276.4695129394532	272.4085083007813	-1168.767822265625	-277.6711425781251	200.2184753417969	-1123.939208984375	-357.4205932617188	122.9311676025391	-1114.552490234375	-313.2221069335938	144.9343566894532	-1040.150024414063	-413.5710754394532	98.12880706787112	-1050.980590820313	-200.5019226074219	60.91053009033205	-1054.044189453125	-206.6932373046876	49.86595916748048	-1099.448120117188	-262.6257019042969	33.42152786254884	-1139.965087890625	-257.7496643066407	819.2143554687502	-880.0859985351565	-202.2194824218751	783.3569335937502	-885.1292114257815	-173.8558197021485	798.3381347656252	-893.217224121094	-195.125961303711	700.3958129882814	-894.0118408203127	-125.8626861572266	584.5888061523439	-902.4146118164065	-113.9353103637696	579.2630615234376	-1036.890258789063	13.27909755706787	452.1837158203126	-920.4071044921877	-8.089077949523928	348.0811462402344	-898.2075805664065	32.64247131347657	368.5310974121094	-904.9367675781252	73.68679046630861	338.9841918945313	-936.1472167968752	91.08895111083986	212.626693725586	-915.2363891601565	101.5028610229492	236.9868469238282	-1001.254333496094	62.96928024291994	141.4618835449219	-972.1387939453127	257.7532958984376	251.1051025390626	-977.0457763671877	251.2935485839844	250.9769134521485	-937.4458007812502	228.9750671386719	205.1605072021485	-887.9398193359377	nan	nan	nan	
